<svg width="262" height="299" viewBox="0 0 262 299" fill="none" xmlns="http://www.w3.org/2000/svg">
<rect x="129.059" width="22" height="317.304" rx="11" transform="rotate(24 129.059 0)" fill="#172453"/>
<rect x="261.934" y="277.244" width="22" height="301.187" rx="11" transform="rotate(157 261.934 277.244)" fill="#100202"/>
<rect x="233.925" y="76" width="22" height="204.799" rx="11" transform="rotate(19.37 233.925 76)" fill="#2A4059"/>
<path d="M3.92459 68.9259C1.7571 62.8916 4.69106 55.7613 10.4778 52.9999V52.9999C16.2645 50.2385 22.7127 52.8918 24.8801 58.9261L93.1672 249.039C95.3347 255.073 92.4008 262.204 86.6141 264.965V264.965C80.8273 267.726 74.3792 265.073 72.2117 259.039L3.92459 68.9259Z" fill="#010420"/>
<rect x="126.954" y="171" width="22" height="102" rx="11" transform="rotate(36 126.954 171)" fill="#162C67"/>
<rect x="115" y="189.302" width="22" height="107.546" rx="11" transform="rotate(-34 115 189.302)" fill="#070202"/>
</svg>
