<svg width="262" height="299" viewBox="0 0 262 299" fill="none" xmlns="http://www.w3.org/2000/svg">
<rect x="129.059" width="22" height="317.304" rx="11" transform="rotate(24 129.059 0)" fill="url(#paint0_linear_1_12)"/>
<rect x="261.934" y="277.244" width="22" height="301.187" rx="11" transform="rotate(157 261.934 277.244)" fill="url(#paint1_linear_1_12)"/>
<rect x="233.925" y="76" width="22" height="204.799" rx="11" transform="rotate(19.37 233.925 76)" fill="url(#paint2_linear_1_12)"/>
<path d="M3.92459 68.9259C1.7571 62.8916 4.69106 55.7613 10.4778 52.9999V52.9999C16.2645 50.2385 22.7127 52.8918 24.8801 58.9261L93.1672 249.039C95.3347 255.073 92.4008 262.204 86.6141 264.965V264.965C80.8273 267.726 74.3792 265.073 72.2117 259.039L3.92459 68.9259Z" fill="url(#paint3_linear_1_12)"/>
<rect x="126.954" y="171" width="22" height="102" rx="11" transform="rotate(36 126.954 171)" fill="#638BF2"/>
<path d="M119.073 195.341C116.635 191.726 116.757 186.964 119.375 183.479V183.479C123.597 177.86 132.099 178.077 136.029 183.904L184.066 255.121C186.504 258.735 186.382 263.497 183.764 266.983V266.983C179.542 272.602 171.04 272.385 167.11 266.558L119.073 195.341Z" fill="url(#paint4_linear_1_12)"/>
<defs>
<linearGradient id="paint0_linear_1_12" x1="140.059" y1="0" x2="140.059" y2="317.304" gradientUnits="userSpaceOnUse">
<stop offset="0.285299" stop-color="#092BA1"/>
<stop offset="1" stop-color="#7484BD" stop-opacity="0"/>
</linearGradient>
<linearGradient id="paint1_linear_1_12" x1="272.934" y1="277.244" x2="272.934" y2="578.431" gradientUnits="userSpaceOnUse">
<stop offset="0.671875" stop-color="#7848FF"/>
<stop offset="1" stop-color="#0E1E57" stop-opacity="0"/>
</linearGradient>
<linearGradient id="paint2_linear_1_12" x1="244.925" y1="76" x2="244.925" y2="280.799" gradientUnits="userSpaceOnUse">
<stop stop-color="#001228"/>
<stop offset="1" stop-color="#6392C9" stop-opacity="0"/>
</linearGradient>
<linearGradient id="paint3_linear_1_12" x1="10.4778" y1="52.9999" x2="106.986" y2="255.244" gradientUnits="userSpaceOnUse">
<stop offset="0.35365" stop-color="#202EAF"/>
<stop offset="1" stop-color="#4D5383" stop-opacity="0"/>
</linearGradient>
<linearGradient id="paint4_linear_1_12" x1="119.522" y1="177.719" x2="183.617" y2="272.743" gradientUnits="userSpaceOnUse">
<stop offset="0.574972" stop-color="#5E3AC2"/>
<stop offset="1" stop-color="#4DC2D2" stop-opacity="0"/>
</linearGradient>
</defs>
</svg>
